<?xml version="1.0" encoding="UTF-8"?>
<svg xmlns="http://www.w3.org/2000/svg" version="1.1" xmlns:xlink="http://www.w3.org/1999/xlink" viewBox="0 0 153.79 125.37">
  <defs>
    <style>
      .cls-1, .cls-2 {
        fill: #51402b;
      }

      .cls-2, .cls-3, .cls-4 {
        mix-blend-mode: screen;
      }

      .cls-3 {
        fill: url(#Degradado_sin_nombre_11);
      }

      .cls-3, .cls-4 {
        opacity: .44;
      }

      .cls-5 {
        fill: #382d21;
      }

      .cls-6 {
        fill: #2dabe3;
      }

      .cls-4 {
        fill: #f4e600;
      }

      .cls-7 {
        fill: #020202;
      }

      .cls-8 {
        fill: #e72b54;
      }

      .cls-9 {
        fill: #0d71b9;
        opacity: .43;
      }

      .cls-10 {
        fill: #e72a55;
      }

      .cls-11 {
        fill: #feea10;
      }

      .cls-12 {
        isolation: isolate;
      }

      .cls-13 {
        fill: #fdc207;
      }

      .cls-14 {
        fill: #140909;
      }

      .cls-15 {
        fill: #fcf3a3;
      }

      .cls-16 {
        fill: #014153;
      }
    </style>
    <linearGradient id="Degradado_sin_nombre_11" data-name="Degradado sin nombre 11" x1="118.31" y1="28.9" x2="124.5" y2="28.9" gradientUnits="userSpaceOnUse">
      <stop offset="0" stop-color="#614d9b" stop-opacity=".1"/>
      <stop offset=".99" stop-color="#6fc7da"/>
    </linearGradient>
  </defs>
  <!-- Generator: Adobe Illustrator 28.7.1, SVG Export Plug-In . SVG Version: 1.2.0 Build 142)  -->
  <g class="cls-12">
    <g id="Capa_1">
      <g>
        <path class="cls-6" d="M152.49,51.25l-2.93-3.77v-1.3H4.2v1.78l-2.56,3.29c-.85,1.09-1.31,2.43-1.31,3.81v46.34c0,1.38.46,2.72,1.31,3.81l2.56,3.29v4.58c0,6.79,5.51,12.3,12.3,12.3h120.77c6.79,0,12.3-5.51,12.3-12.3v-4.1l2.93-3.77c.85-1.09,1.31-2.43,1.31-3.81v-46.34c0-1.38-.46-2.72-1.31-3.81Z"/>
        <path class="cls-11" d="M4.2,46.19h145.36v-19.99c0-3.42-2.77-6.2-6.2-6.2h-41.79v-7c0-2.43-1.97-4.4-4.4-4.4h-40.39c-2.43,0-4.4,1.97-4.4,4.4v6.2h-18.1c-2.15,0-3.9,1.75-3.9,3.9v5.5H7.84c-2.22,0-4,1.82-3.95,4.04l.31,13.55Z"/>
        <path class="cls-8" d="M9.65,21.19h17.49c1.79,0,3.25,1.46,3.25,3.25v4.15H6.4v-4.15c0-1.79,1.46-3.25,3.25-3.25Z"/>
        <path class="cls-8" d="M66.23,0h21.09c1.79,0,3.25,1.46,3.25,3.25v5.35h-27.59V3.25c0-1.79,1.46-3.25,3.25-3.25Z"/>
        <path class="cls-11" d="M103.74,45.99h-54.13c-3.63,0-6.54,3.01-6.43,6.65l1.81,60.4c.11,3.59,3.03,6.44,6.61,6.44h17.98v5.82h14.2v-5.82h17.98c3.57,0,6.5-2.85,6.61-6.44l1.81-60.4c.11-3.64-2.8-6.65-6.43-6.65Z"/>
        <rect class="cls-14" y="57.78" width="3.6" height="44.39"/>
        <rect class="cls-14" x="150.16" y="57.78" width="3.6" height="44.39"/>
        <path class="cls-10" d="M32.99,67.98h10.6l.4,13.4s-3-6.4-7-6-4-7.4-4-7.4Z"/>
        <rect class="cls-15" x="16" y="31.99" width="32.39" height="11.4" rx="2.12" ry="2.12"/>
        <rect class="cls-14" x="57.58" y="13" width="38.59" height="26.19" rx="1.87" ry="1.87"/>
        <path class="cls-16" d="M108.71,21.99h18.32c1.07,0,1.94.87,1.94,1.94v16.72c0,1.07-.87,1.94-1.94,1.94h-18.32c-1.07,0-1.94-.87-1.94-1.94v-16.72c0-1.07.87-1.94,1.94-1.94Z"/>
        <path class="cls-7" d="M112.03,24.79h11.67c1.24,0,2.24,1.01,2.24,2.24v10.51c0,1.24-1.01,2.24-2.24,2.24h-11.67c-1.24,0-2.24-1.01-2.24-2.24v-10.51c0-1.24,1.01-2.24,2.24-2.24Z"/>
        <circle class="cls-13" cx="76.48" cy="88.28" r="29.29" transform="translate(-26.85 142.73) rotate(-76.89)"/>
        <circle class="cls-8" cx="76.48" cy="88.28" r="26.69" transform="translate(-26.86 142.7) rotate(-76.87)"/>
        <circle class="cls-11" cx="76.48" cy="88.28" r="17.7" transform="translate(-27.45 141.57) rotate(-76.25)"/>
        <circle class="cls-5" cx="76.48" cy="88.28" r="11.3"/>
        <circle class="cls-14" cx="76.48" cy="88.28" r="8.3" transform="translate(-26.96 142.51) rotate(-76.77)"/>
        <rect class="cls-1" x="60.53" y="14.8" width="32.7" height="22.99"/>
        <path class="cls-2" d="M81.64,85.31c0,1.77-1.43,3.2-3.2,3.2s-3.2-1.43-3.2-3.2,1.43-3.2,3.2-3.2,3.2,1.43,3.2,3.2Z"/>
        <path class="cls-2" d="M118.43,33.06c0,1.77-1.43,3.2-3.2,3.2s-3.2-1.43-3.2-3.2,1.43-3.2,3.2-3.2,3.2,1.43,3.2,3.2Z"/>
        <path class="cls-4" d="M81.58,89.81c0,.66-.54,1.2-1.2,1.2s-1.2-.54-1.2-1.2.54-1.2,1.2-1.2,1.2.54,1.2,1.2Z"/>
        <path class="cls-3" d="M118.37,26.29l6.13,5.27v-2.91c0-1.21-.93-2.22-2.14-2.33-1.87-.16-4.49-.03-3.99-.03Z"/>
        <rect class="cls-2" x="60.98" y="15.8" width="31.79" height="2" rx=".62" ry=".62"/>
        <rect class="cls-2" x="60.98" y="18.99" width="31.79" height="2" rx=".62" ry=".62"/>
        <rect class="cls-2" x="60.98" y="22.19" width="31.79" height="2" rx=".62" ry=".62"/>
        <rect class="cls-2" x="60.98" y="25.39" width="31.79" height="2" rx=".62" ry=".62"/>
        <rect class="cls-2" x="60.98" y="28.59" width="31.79" height="2" rx=".62" ry=".62"/>
        <rect class="cls-2" x="60.98" y="31.79" width="31.79" height="2" rx=".62" ry=".62"/>
        <rect class="cls-2" x="60.98" y="34.99" width="31.79" height="2" rx=".62" ry=".62"/>
        <rect class="cls-9" x="15" y="45.85" width="13.86" height="79.18"/>
        <rect class="cls-9" x="124.57" y="45.85" width="13.86" height="79.18"/>
        <polygon class="cls-13" points="52.41 19.19 52.59 42.12 48.32 46.12 52.41 19.19"/>
        <polygon class="cls-13" points="101.57 19.99 101.63 41.86 105.64 46.39 101.57 19.99"/>
        <polygon class="cls-15" points="100.37 43.99 76.78 44.19 53.19 43.99 46.59 48.59 76.78 48.59 106.97 48.59 100.37 43.99"/>
      </g>
    </g>
  </g>
</svg>